<svg aria-hidden="true" style="position: absolute; width: 0; height: 0; overflow: hidden;" version="1.1" xmlns="http://www.w3.org/2000/svg" xmlns:xlink="http://www.w3.org/1999/xlink">
<defs>
<symbol id="icon-normal-2" viewBox="0 0 36 32">
<path fill="#b8bcfd" style="fill: var(--color1, #b8bcfd)" d="M5.333 0h24.889c2.946 0 5.333 2.388 5.333 5.333v21.333c0 2.946-2.388 5.333-5.333 5.333h-24.889c-2.946 0-5.333-2.388-5.333-5.333v-21.333c0-2.946 2.388-5.333 5.333-5.333z"></path>
<path fill="none" stroke="#fff" style="stroke: var(--color2, #fff)" stroke-linejoin="round" stroke-linecap="round" stroke-miterlimit="4" stroke-width="1.6" d="M17.778 10.815v10.37"></path>
<path fill="none" stroke="#fff" style="stroke: var(--color2, #fff)" stroke-linejoin="round" stroke-linecap="round" stroke-miterlimit="4" stroke-width="1.6" d="M12.592 16h10.37"></path>
</symbol>
<symbol id="icon-hover-1" viewBox="0 0 36 32">
<path fill="#979cea" style="fill: var(--color3, #979cea)" d="M5.333 0h24.889c2.946 0 5.333 2.388 5.333 5.333v21.333c0 2.946-2.388 5.333-5.333 5.333h-24.889c-2.946 0-5.333-2.388-5.333-5.333v-21.333c0-2.946 2.388-5.333 5.333-5.333z"></path>
<path fill="none" stroke="#fff" style="stroke: var(--color2, #fff)" stroke-linejoin="round" stroke-linecap="round" stroke-miterlimit="4" stroke-width="1.6" d="M17.778 10.815v10.37"></path>
<path fill="none" stroke="#fff" style="stroke: var(--color2, #fff)" stroke-linejoin="round" stroke-linecap="round" stroke-miterlimit="4" stroke-width="1.6" d="M12.592 16h10.37"></path>
</symbol>
<symbol id="icon-Vector-5" viewBox="0 0 3152 32">
<path stroke-linejoin="miter" stroke-linecap="butt" stroke-miterlimit="4" stroke-width="16" d="M0 16h3152"></path>
</symbol>
</defs>
</svg>
