<svg aria-hidden="true" style="position: absolute; width: 0; height: 0; overflow: hidden;" version="1.1" xmlns="http://www.w3.org/2000/svg" xmlns:xlink="http://www.w3.org/1999/xlink">
<defs>
<symbol id="icon-plus-4" viewBox="0 0 32 32">
<path fill="#fff" style="fill: var(--color1, #fff)" d="M25.143 0h-18.286c-3.787 0-6.857 3.070-6.857 6.857v18.286c0 3.787 3.070 6.857 6.857 6.857h18.286c3.787 0 6.857-3.070 6.857-6.857v-18.286c0-3.787-3.070-6.857-6.857-6.857z"></path>
<path fill="none" stroke="#121212" style="stroke: var(--color2, #121212)" stroke-linejoin="round" stroke-linecap="round" stroke-miterlimit="4" stroke-width="1.1429" d="M16 11.333v9.333"></path>
<path fill="none" stroke="#121212" style="stroke: var(--color2, #121212)" stroke-linejoin="round" stroke-linecap="round" stroke-miterlimit="4" stroke-width="1.1429" d="M11.333 16h9.333"></path>
</symbol>
<symbol id="icon-icon-1" viewBox="0 0 32 32">
<path fill="#1f1f1f" style="fill: var(--color3, #1f1f1f)" d="M24 0h-16c-4.418 0-8 3.582-8 8v16c0 4.418 3.582 8 8 8h16c4.418 0 8-3.582 8-8v-16c0-4.418-3.582-8-8-8z"></path>
<path fill="#fff" style="fill: var(--color1, #fff)" d="M13.331 23.027c0.245-1.272 0.453-2.61 0.747-3.949 0.145-0.701-0.032-0.999-0.815-0.946s-1.657 0.027-2.49 0c-0.833-0.027-0.982-0.446-0.502-1.044 2.363-2.918 4.753-5.8 7.134-8.674 0.267-0.326 0.575-0.558 1.014-0.312s0.349 0.549 0.276 0.915c-0.263 1.339-0.48 2.677-0.77 3.989-0.149 0.678 0.045 0.919 0.751 0.892 0.709-0.036 1.419-0.036 2.127 0 0.403 0 0.933-0.21 1.141 0.339s-0.231 0.781-0.453 1.107c-0.905 1.115-1.823 2.229-2.752 3.342-1.361 1.624-2.711 3.242-4.051 4.854-0.263 0.317-0.557 0.571-1.005 0.41s-0.353-0.54-0.353-0.924z"></path>
</symbol>
<symbol id="icon-filter-1" viewBox="0 0 32 32">
<path fill="none" stroke="#fff" style="stroke: var(--color1, #fff)" stroke-linejoin="round" stroke-linecap="round" stroke-miterlimit="4" stroke-width="3" d="M29.333 4h-26.667l10.667 12.613v8.72l5.333 2.667v-11.387l10.667-12.613z"></path>
</symbol>
<symbol id="icon-chevron-down-5" viewBox="0 0 30 32">
<path fill="none" stroke="#fff" style="stroke: var(--color1, #fff)" stroke-linejoin="round" stroke-linecap="round" stroke-miterlimit="4" stroke-width="2.8235" d="M7.529 12.235l7.529 7.529 7.529-7.529"></path>
</symbol>
<symbol id="icon-menu-01-3" viewBox="0 0 32 32">
<path fill="none" stroke="#fff" style="stroke: var(--color1, #fff)" stroke-linejoin="round" stroke-linecap="round" stroke-miterlimit="4" stroke-width="2.6667" d="M4 16h24"></path>
<path fill="none" stroke="#fff" style="stroke: var(--color1, #fff)" stroke-linejoin="round" stroke-linecap="round" stroke-miterlimit="4" stroke-width="2.6667" d="M4 8h24"></path>
<path fill="none" stroke="#fff" style="stroke: var(--color1, #fff)" stroke-linejoin="round" stroke-linecap="round" stroke-miterlimit="4" stroke-width="2.6667" d="M4 24h24"></path>
</symbol>


<!-- <symbol id="icon-menu-01-2" viewBox="0 0 32 32">
<path stroke-linejoin="round" stroke-linecap="round" stroke-miterlimit="4" stroke-width="2.5" d="M4 16h24"></path>
<path stroke-linejoin="round" stroke-linecap="round" stroke-miterlimit="4" stroke-width="2.5" d="M4 8h24"></path>
<path stroke-linejoin="round" stroke-linecap="round" stroke-miterlimit="4" stroke-width="2.5" d="M4 24h24"></path>
</symbol> -->

<symbol id="icon-menu-01-2" viewBox="0 0 32 32">
  <path 
    stroke="currentColor"
    stroke-linejoin="round" 
    stroke-linecap="round" 
    stroke-miterlimit="4" 
    stroke-width="2.5" 
    d="M4 16h24"
  ></path>
  <path 
    stroke="currentColor"
    stroke-linejoin="round" 
    stroke-linecap="round" 
    stroke-miterlimit="4" 
    stroke-width="2.5" 
    d="M4 8h24"
  ></path>
  <path 
    stroke="currentColor"
    stroke-linejoin="round" 
    stroke-linecap="round" 
    stroke-miterlimit="4" 
    stroke-width="2.5" 
    d="M4 24h24"
  ></path>
</symbol>


<symbol id="icon-help-circle-1" viewBox="0 0 32 32">
<path stroke-linejoin="round" stroke-linecap="round" stroke-miterlimit="4" stroke-width="2.88" d="M16 29.333c7.364 0 13.333-5.97 13.333-13.333s-5.969-13.333-13.333-13.333-13.333 5.97-13.333 13.333c0 7.364 5.97 13.333 13.333 13.333z"></path>
<path stroke-linejoin="round" stroke-linecap="round" stroke-miterlimit="4" stroke-width="2.88" d="M12.12 12c0.313-0.891 0.932-1.643 1.747-2.121s1.772-0.654 2.703-0.494c0.931 0.16 1.776 0.644 2.384 1.366s0.941 1.637 0.94 2.582c0 2.667-4 4-4 4"></path>
<path stroke-linejoin="round" stroke-linecap="round" stroke-miterlimit="4" stroke-width="2.88" d="M16 22.667h0.020"></path>
</symbol>
<symbol id="icon-help-circle" viewBox="0 0 32 32">
<path fill="none" stroke="#fff" style="stroke: var(--color1, #fff)" stroke-linejoin="round" stroke-linecap="round" stroke-miterlimit="4" stroke-width="2.88" d="M16 29.333c7.364 0 13.333-5.97 13.333-13.333s-5.969-13.333-13.333-13.333-13.333 5.97-13.333 13.333c0 7.364 5.97 13.333 13.333 13.333z"></path>
<path fill="none" stroke="#fff" style="stroke: var(--color1, #fff)" stroke-linejoin="round" stroke-linecap="round" stroke-miterlimit="4" stroke-width="2.88" d="M12.12 12c0.313-0.891 0.932-1.643 1.747-2.121s1.772-0.654 2.703-0.494c0.931 0.16 1.776 0.644 2.384 1.366s0.941 1.637 0.94 2.582c0 2.667-4 4-4 4"></path>
<path fill="none" stroke="#fff" style="stroke: var(--color1, #fff)" stroke-linejoin="round" stroke-linecap="round" stroke-miterlimit="4" stroke-width="2.88" d="M16 22.667h0.020"></path>
</symbol>
<symbol id="icon-x-close-2" viewBox="0 0 32 32">
<path fill="none" stroke="#fff" style="stroke: var(--color1, #fff)" stroke-linejoin="round" stroke-linecap="round" stroke-miterlimit="4" stroke-width="2.6667" d="M24 8l-16 16"></path>
<path fill="none" stroke="#fff" style="stroke: var(--color1, #fff)" stroke-linejoin="round" stroke-linecap="round" stroke-miterlimit="4" stroke-width="2.6667" d="M8 8l16 16"></path>
</symbol>
<symbol id="icon-Arrow-4" viewBox="0 0 19 32">
<path fill="none" stroke="#fff" style="stroke: var(--color1, #fff)" stroke-linejoin="round" stroke-linecap="round" stroke-miterlimit="4" stroke-width="4.8" d="M16 28.8l-12.8-12.8 12.8-12.8"></path>
</symbol>
<symbol id="icon-Vector-5" viewBox="0 0 3152 32">
<path stroke-linejoin="miter" stroke-linecap="butt" stroke-miterlimit="4" stroke-width="16" d="M0 16h3152"></path>
</symbol>
<symbol id="icon-Arrow-3" viewBox="0 0 19 32">
<path stroke-linejoin="round" stroke-linecap="round" stroke-miterlimit="4" stroke-width="4.8" d="M16 28.8l-12.8-12.8 12.8-12.8"></path>
</symbol>
<symbol id="icon-Arrow-2" viewBox="0 0 19 32">
<path fill="none" stroke="#bedbb0" style="stroke: var(--color4, #bedbb0)" stroke-linejoin="round" stroke-linecap="round" stroke-miterlimit="4" stroke-width="4.8" d="M3.2 3.2l12.8 12.8-12.8 12.8"></path>
</symbol>
<symbol id="icon-chevron-down-4" viewBox="0 0 30 32">
<path fill="none" stroke="#5255bc" style="stroke: var(--color5, #5255bc)" stroke-linejoin="round" stroke-linecap="round" stroke-miterlimit="4" stroke-width="3.3684" d="M7.579 12.211l7.579 7.579 7.579-7.579"></path>
</symbol>
<symbol id="icon-chevron-down-3" viewBox="0 0 30 32">
<path fill="none" stroke="#bedbb0" style="stroke: var(--color4, #bedbb0)" stroke-linejoin="round" stroke-linecap="round" stroke-miterlimit="4" stroke-width="3.3684" d="M7.579 12.211l7.579 7.579 7.579-7.579"></path>
</symbol>
<symbol id="icon-arrow-circle-broken-right-3" viewBox="0 0 30 32">
<path fill="none" stroke="#5255bc" style="stroke: var(--color5, #5255bc)" stroke-linejoin="round" stroke-linecap="round" stroke-miterlimit="4" stroke-width="2.4471" d="M4.189 9.725c2.17-3.751 6.225-6.275 10.87-6.275 6.931 0 12.549 5.618 12.549 12.549s-5.618 12.549-12.549 12.549c-4.645 0-8.7-2.523-10.87-6.274"></path>
<path fill="none" stroke="#5255bc" style="stroke: var(--color5, #5255bc)" stroke-linejoin="round" stroke-linecap="round" stroke-miterlimit="4" stroke-width="2.4471" d="M15.059 21.019l5.020-5.020-5.020-5.020"></path>
<path fill="none" stroke="#5255bc" style="stroke: var(--color5, #5255bc)" stroke-linejoin="round" stroke-linecap="round" stroke-miterlimit="4" stroke-width="2.4471" d="M2.509 16h17.569"></path>
</symbol>
<symbol id="icon-arrow-circle-broken-right-2" viewBox="0 0 30 32">
<path stroke-linejoin="round" stroke-linecap="round" stroke-miterlimit="4" stroke-width="2.4471" d="M4.189 9.725c2.17-3.751 6.225-6.275 10.87-6.275 6.931 0 12.549 5.618 12.549 12.549s-5.618 12.549-12.549 12.549c-4.645 0-8.7-2.523-10.87-6.274"></path>
<path stroke-linejoin="round" stroke-linecap="round" stroke-miterlimit="4" stroke-width="2.4471" d="M15.059 21.019l5.020-5.020-5.020-5.020"></path>
<path stroke-linejoin="round" stroke-linecap="round" stroke-miterlimit="4" stroke-width="2.4471" d="M2.509 16h17.569"></path>
</symbol>
<symbol id="icon-Arrow-1" viewBox="0 0 19 32">
<path fill="none" stroke="#5255bc" style="stroke: var(--color5, #5255bc)" stroke-linejoin="round" stroke-linecap="round" stroke-miterlimit="4" stroke-width="4.8" d="M3.2 3.2l12.8 12.8-12.8 12.8"></path>
</symbol>
<symbol id="icon-x-close-1" viewBox="0 0 32 32">
<path stroke-linejoin="round" stroke-linecap="round" stroke-miterlimit="4" stroke-width="2.6667" d="M24 8l-16 16"></path>
<path stroke-linejoin="round" stroke-linecap="round" stroke-miterlimit="4" stroke-width="2.6667" d="M8 8l16 16"></path>
</symbol>


<symbol id="icon-plus-3" viewBox="0 0 32 32">
<path fill="#ecedfd" style="fill: var(--color6, #ecedfd)" d="M24 0h-16c-4.418 0-8 3.582-8 8v16c0 4.418 3.582 8 8 8h16c4.418 0 8-3.582 8-8v-16c0-4.418-3.582-8-8-8z"></path>
<path fill="none" stroke="#161616" style="stroke: var(--color7, #161616)" stroke-linejoin="round" stroke-linecap="round" stroke-miterlimit="4" stroke-width="1.3333" d="M16 12.111v7.778"></path>
<path fill="none" stroke="#161616" style="stroke: var(--color7, #161616)" stroke-linejoin="round" stroke-linecap="round" stroke-miterlimit="4" stroke-width="1.3333" d="M12.111 16h7.778"></path>
</symbol>




<symbol id="icon-icon" viewBox="0 0 32 32">
<path fill="#ecedfd" style="fill: var(--color6, #ecedfd)" d="M24 0h-16c-4.418 0-8 3.582-8 8v16c0 4.418 3.582 8 8 8h16c4.418 0 8-3.582 8-8v-16c0-4.418-3.582-8-8-8z"></path>
<path fill="#5255bc" style="fill: var(--color5, #5255bc)" d="M13.331 23.027c0.245-1.272 0.453-2.61 0.747-3.949 0.145-0.701-0.032-0.999-0.815-0.946s-1.657 0.027-2.49 0c-0.833-0.027-0.982-0.446-0.502-1.044 2.363-2.918 4.753-5.8 7.134-8.674 0.267-0.326 0.575-0.558 1.014-0.312s0.349 0.549 0.276 0.915c-0.263 1.339-0.48 2.677-0.77 3.989-0.149 0.678 0.045 0.919 0.751 0.892 0.709-0.036 1.419-0.036 2.127 0 0.403 0 0.933-0.21 1.141 0.339s-0.231 0.781-0.453 1.107c-0.905 1.115-1.823 2.229-2.752 3.342-1.361 1.624-2.711 3.242-4.051 4.854-0.263 0.317-0.557 0.571-1.005 0.41s-0.353-0.54-0.353-0.924z"></path>
</symbol>
<symbol id="icon-plus-2" viewBox="0 0 32 32">
<path fill="#5255bc" style="fill: var(--color5, #5255bc)" d="M25.143 0h-18.286c-3.787 0-6.857 3.070-6.857 6.857v18.286c0 3.787 3.070 6.857 6.857 6.857h18.286c3.787 0 6.857-3.070 6.857-6.857v-18.286c0-3.787-3.070-6.857-6.857-6.857z"></path>
<path fill="none" stroke="#fff" style="stroke: var(--color1, #fff)" stroke-linejoin="round" stroke-linecap="round" stroke-miterlimit="4" stroke-width="1.1429" d="M16 11.333v9.333"></path>
<path fill="none" stroke="#fff" style="stroke: var(--color1, #fff)" stroke-linejoin="round" stroke-linecap="round" stroke-miterlimit="4" stroke-width="1.1429" d="M11.334 16h9.333"></path>
</symbol>
<symbol id="icon-block" viewBox="0 0 36 32">
<path fill="#b8bcfd" style="fill: var(--color8, #b8bcfd)" d="M5.333 0h24.889c2.946 0 5.333 2.388 5.333 5.333v21.333c0 2.946-2.388 5.333-5.333 5.333h-24.889c-2.946 0-5.333-2.388-5.333-5.333v-21.333c0-2.946 2.388-5.333 5.333-5.333z"></path>
<path fill="none" stroke="#fff" style="stroke: var(--color1, #fff)" stroke-linejoin="round" stroke-linecap="round" stroke-miterlimit="4" stroke-width="1.6" d="M17.778 10.815v10.37"></path>
<path fill="none" stroke="#fff" style="stroke: var(--color1, #fff)" stroke-linejoin="round" stroke-linecap="round" stroke-miterlimit="4" stroke-width="1.6" d="M12.593 16h10.37"></path>
</symbol>
<symbol id="icon-chevron-down-2" viewBox="0 0 30 32">
<path stroke-linejoin="round" stroke-linecap="round" stroke-miterlimit="4" stroke-width="2.8235" d="M7.529 12.235l7.529 7.529 7.529-7.529"></path>
</symbol>



<symbol id="icon-arrow-circle-broken-right-1" viewBox="0 0 30 32">
<path fill="none" stroke="#bedbb0" style="stroke: var(--color4, #bedbb0)" stroke-linejoin="round" stroke-linecap="round" stroke-miterlimit="4" stroke-width="2.4471" d="M4.189 9.725c2.17-3.751 6.225-6.275 10.87-6.275 6.931 0 12.549 5.618 12.549 12.549s-5.618 12.549-12.549 12.549c-4.645 0-8.7-2.523-10.87-6.274"></path>
<path fill="none" stroke="#bedbb0" style="stroke: var(--color4, #bedbb0)" stroke-linejoin="round" stroke-linecap="round" stroke-miterlimit="4" stroke-width="2.4471" d="M15.059 21.019l5.020-5.020-5.020-5.020"></path>
<path fill="none" stroke="#bedbb0" style="stroke: var(--color4, #bedbb0)" stroke-linejoin="round" stroke-linecap="round" stroke-miterlimit="4" stroke-width="2.4471" d="M2.51 16h17.569"></path>
</symbol>
<symbol id="icon-Ellipse-10" viewBox="0 0 32 32">
<path fill="#bedbb0" style="fill: var(--color4, #bedbb0)" d="M32 16c0 8.837-7.163 16-16 16s-16-7.163-16-16c0-8.837 7.163-16 16-16s16 7.163 16 16z"></path>
</symbol>
<symbol id="icon-Ellipse-9" viewBox="0 0 32 32">
<path fill="#e09cb5" style="fill: var(--color9, #e09cb5)" d="M32 16c0 8.837-7.163 16-16 16s-16-7.163-16-16c0-8.837 7.163-16 16-16s16 7.163 16 16z"></path>
</symbol>
<symbol id="icon-Ellipse-8" viewBox="0 0 32 32">
<path d="M32 16c0 8.837-7.163 16-16 16s-16-7.163-16-16c0-8.837 7.163-16 16-16s16 7.163 16 16z"></path>
</symbol>
<symbol id="icon-radio-button" viewBox="0 0 32 32">
<path fill="#8fa1d0" style="fill: var(--color10, #8fa1d0)" d="M25.143 16c0 5.049-4.093 9.143-9.143 9.143s-9.143-4.093-9.143-9.143c0-5.049 4.093-9.143 9.143-9.143s9.143 4.093 9.143 9.143z"></path>
<path fill="none" stroke="#8fa1d0" style="stroke: var(--color10, #8fa1d0)" stroke-linejoin="miter" stroke-linecap="butt" stroke-miterlimit="4" stroke-width="2.2857" d="M30.857 16c0 8.205-6.652 14.857-14.857 14.857s-14.857-6.652-14.857-14.857c0-8.205 6.652-14.857 14.857-14.857s14.857 6.652 14.857 14.857z"></path>
</symbol>
<symbol id="icon-user-1" viewBox="0 0 13 32">
<path fill="#f6f6f7" style="fill: var(--color11, #f6f6f7)" d="M0.503 0h3.269c0.278 0 0.503 0.225 0.503 0.503v3.269c0 0.278-0.225 0.503-0.503 0.503h-3.269c-0.278 0-0.503-0.225-0.503-0.503v-3.269c0-0.278 0.225-0.503 0.503-0.503z"></path>
<path fill="#fff" style="fill: var(--color1, #fff)" d="M2.871 1.97c0 0.393-0.319 0.712-0.712 0.712s-0.712-0.319-0.712-0.712c0-0.393 0.319-0.712 0.712-0.712s0.712 0.319 0.712 0.712z"></path>
<path fill="#fff" style="fill: var(--color1, #fff)" d="M3.882 4.389c0-0.23-0.045-0.458-0.133-0.671s-0.217-0.406-0.38-0.569c-0.163-0.163-0.356-0.292-0.569-0.38s-0.441-0.133-0.671-0.133c-0.23 0-0.458 0.045-0.671 0.133s-0.406 0.217-0.569 0.38c-0.163 0.163-0.292 0.356-0.38 0.569s-0.133 0.441-0.133 0.671h3.505z"></path>
<path fill="#bedbb0" style="fill: var(--color4, #bedbb0)" d="M2.515 3.395h-0.754c-0.208 0-0.377 0.169-0.377 0.377v0.754c0 0.208 0.169 0.377 0.377 0.377h0.754c0.208 0 0.377-0.169 0.377-0.377v-0.754c0-0.208-0.169-0.377-0.377-0.377z"></path>
<path fill="#fff" style="fill: var(--color1, #fff)" d="M6.707 31.46c0-0.068 0.015-0.13 0.046-0.184s0.073-0.098 0.126-0.129c0.054-0.031 0.113-0.046 0.178-0.046 0.076 0 0.143 0.018 0.2 0.055s0.099 0.089 0.125 0.157h-0.11c-0.019-0.042-0.048-0.075-0.085-0.098s-0.080-0.034-0.131-0.034c-0.049 0-0.093 0.011-0.132 0.034s-0.069 0.055-0.092 0.098c-0.022 0.042-0.033 0.091-0.033 0.147s0.011 0.105 0.033 0.147c0.022 0.042 0.053 0.074 0.092 0.097s0.083 0.034 0.132 0.034c0.051 0 0.095-0.011 0.131-0.033s0.065-0.055 0.085-0.098h0.11c-0.026 0.067-0.068 0.119-0.125 0.156s-0.124 0.054-0.2 0.054c-0.065 0-0.124-0.015-0.178-0.045s-0.095-0.073-0.126-0.128-0.046-0.116-0.046-0.184zM7.719 31.82c-0.052 0-0.099-0.012-0.141-0.035s-0.074-0.057-0.099-0.1c-0.023-0.044-0.035-0.094-0.035-0.151s0.012-0.106 0.036-0.149c0.025-0.044 0.058-0.077 0.101-0.1s0.090-0.035 0.142-0.035 0.1 0.012 0.142 0.035c0.042 0.023 0.075 0.056 0.1 0.099s0.037 0.093 0.037 0.15-0.013 0.107-0.038 0.151c-0.025 0.043-0.059 0.076-0.102 0.1s-0.091 0.035-0.143 0.035zM7.719 31.74c0.033 0 0.064-0.008 0.093-0.023s0.052-0.039 0.069-0.069c0.018-0.031 0.027-0.068 0.027-0.113s-0.009-0.082-0.026-0.113c-0.017-0.031-0.040-0.054-0.068-0.068s-0.059-0.023-0.092-0.023c-0.034 0-0.064 0.008-0.093 0.023s-0.050 0.038-0.066 0.068c-0.017 0.031-0.025 0.068-0.025 0.113s0.008 0.083 0.024 0.114c0.017 0.031 0.039 0.054 0.066 0.069s0.058 0.022 0.091 0.022zM8.173 31.067v0.744h-0.092v-0.744h0.092zM8.529 31.82c-0.052 0-0.099-0.012-0.141-0.035s-0.074-0.057-0.099-0.1c-0.023-0.044-0.035-0.094-0.035-0.151s0.012-0.106 0.036-0.149c0.025-0.044 0.058-0.077 0.101-0.1s0.090-0.035 0.142-0.035 0.1 0.012 0.142 0.035c0.042 0.023 0.075 0.056 0.1 0.099s0.037 0.093 0.037 0.15-0.013 0.107-0.038 0.151c-0.025 0.043-0.059 0.076-0.102 0.1s-0.091 0.035-0.143 0.035zM8.529 31.74c0.033 0 0.064-0.008 0.093-0.023s0.052-0.039 0.069-0.069c0.018-0.031 0.027-0.068 0.027-0.113s-0.009-0.082-0.026-0.113c-0.017-0.031-0.040-0.054-0.068-0.068s-0.059-0.023-0.092-0.023c-0.034 0-0.064 0.008-0.093 0.023s-0.050 0.038-0.066 0.068c-0.017 0.031-0.025 0.068-0.025 0.113s0.008 0.083 0.024 0.114c0.017 0.031 0.039 0.054 0.066 0.069s0.058 0.022 0.091 0.022zM8.983 31.35c0.016-0.032 0.039-0.056 0.068-0.073s0.067-0.026 0.11-0.026v0.095h-0.024c-0.103 0-0.154 0.056-0.154 0.167v0.3h-0.092v-0.551h0.092v0.090zM9.422 31.82c-0.042 0-0.080-0.007-0.114-0.021s-0.060-0.035-0.079-0.060c-0.019-0.026-0.030-0.056-0.032-0.090h0.095c0.003 0.027 0.015 0.050 0.038 0.067s0.054 0.026 0.092 0.026c0.035 0 0.062-0.008 0.082-0.023s0.030-0.035 0.030-0.058c0-0.024-0.011-0.042-0.032-0.053s-0.055-0.024-0.1-0.035c-0.041-0.011-0.074-0.021-0.101-0.032s-0.048-0.028-0.066-0.049c-0.018-0.022-0.027-0.051-0.027-0.087 0-0.028 0.008-0.054 0.025-0.077s0.041-0.042 0.071-0.055c0.031-0.014 0.066-0.021 0.106-0.021 0.061 0 0.11 0.015 0.148 0.046s0.058 0.073 0.060 0.127h-0.092c-0.002-0.029-0.014-0.052-0.035-0.069s-0.049-0.026-0.085-0.026c-0.033 0-0.059 0.007-0.078 0.021s-0.029 0.032-0.029 0.055c0 0.018 0.006 0.033 0.017 0.045s0.027 0.021 0.044 0.028c0.018 0.007 0.043 0.014 0.074 0.023 0.040 0.011 0.072 0.021 0.097 0.032s0.046 0.025 0.063 0.046c0.018 0.021 0.028 0.048 0.028 0.081 0 0.030-0.008 0.057-0.025 0.081s-0.041 0.043-0.071 0.057c-0.030 0.013-0.065 0.020-0.105 0.020zM10.054 30.864l-0.276 1.119h-0.091l0.275-1.119h0.092zM10.242 31.737h0.245v0.074h-0.337v-0.701h0.092v0.627zM10.51 31.534c0-0.056 0.011-0.106 0.034-0.148s0.054-0.076 0.094-0.1c0.040-0.023 0.085-0.035 0.134-0.035s0.090 0.010 0.126 0.031c0.036 0.021 0.062 0.047 0.079 0.078v-0.101h0.093v0.551h-0.093v-0.103c-0.018 0.032-0.045 0.059-0.081 0.080s-0.077 0.031-0.125 0.031c-0.049 0-0.093-0.012-0.133-0.036s-0.071-0.058-0.094-0.102c-0.023-0.044-0.034-0.093-0.034-0.149zM10.977 31.535c0-0.042-0.008-0.078-0.025-0.109s-0.040-0.054-0.068-0.070c-0.028-0.017-0.059-0.025-0.094-0.025s-0.065 0.008-0.094 0.024c-0.028 0.016-0.051 0.040-0.067 0.070s-0.025 0.067-0.025 0.109c0 0.042 0.008 0.079 0.025 0.111s0.039 0.055 0.067 0.071c0.028 0.016 0.059 0.024 0.094 0.024s0.065-0.008 0.094-0.024c0.029-0.017 0.052-0.041 0.068-0.071s0.025-0.068 0.025-0.11zM11.275 31.363c0.019-0.033 0.046-0.060 0.082-0.080s0.077-0.031 0.124-0.031c0.050 0 0.094 0.012 0.134 0.035s0.071 0.057 0.094 0.1c0.023 0.042 0.034 0.092 0.034 0.148s-0.011 0.105-0.034 0.149-0.054 0.077-0.095 0.102c-0.040 0.024-0.084 0.036-0.133 0.036-0.048 0-0.090-0.010-0.126-0.031s-0.062-0.047-0.080-0.079v0.102h-0.092v-0.744h0.092v0.296zM11.65 31.534c0-0.042-0.008-0.078-0.025-0.109s-0.040-0.054-0.068-0.070c-0.028-0.016-0.059-0.024-0.094-0.024s-0.065 0.008-0.094 0.025c-0.028 0.016-0.051 0.040-0.068 0.071s-0.025 0.067-0.025 0.108c0 0.042 0.008 0.078 0.025 0.11s0.040 0.055 0.068 0.071c0.029 0.016 0.060 0.024 0.094 0.024s0.065-0.008 0.094-0.024c0.029-0.017 0.052-0.041 0.068-0.071s0.025-0.068 0.025-0.111zM12.326 31.515c0 0.017-0.001 0.036-0.003 0.055h-0.441c0.003 0.054 0.022 0.097 0.055 0.128s0.075 0.045 0.124 0.045c0.040 0 0.072-0.009 0.099-0.027s0.046-0.044 0.056-0.074h0.099c-0.015 0.053-0.044 0.096-0.089 0.13s-0.099 0.049-0.165 0.049c-0.052 0-0.099-0.012-0.141-0.035s-0.073-0.057-0.097-0.1c-0.023-0.044-0.035-0.094-0.035-0.151s0.011-0.107 0.034-0.15c0.023-0.043 0.055-0.076 0.096-0.099s0.089-0.035 0.143-0.035c0.052 0 0.099 0.011 0.139 0.034s0.071 0.054 0.093 0.095c0.022 0.040 0.033 0.084 0.033 0.135zM12.232 31.496c0-0.035-0.008-0.065-0.023-0.090s-0.037-0.045-0.063-0.057c-0.026-0.013-0.055-0.020-0.088-0.020-0.046 0-0.086 0.015-0.119 0.044s-0.051 0.070-0.055 0.123h0.348zM12.498 31.067v0.744h-0.092v-0.744h0.092z"></path>
</symbol>
<symbol id="icon-user" viewBox="0 0 32 32">
<path fill="#f6f6f7" style="fill: var(--color11, #f6f6f7)" d="M3.765 0h24.471c2.079 0 3.765 1.686 3.765 3.765v24.471c0 2.079-1.686 3.765-3.765 3.765h-24.471c-2.079 0-3.765-1.686-3.765-3.765v-24.471c0-2.079 1.686-3.765 3.765-3.765z"></path>
<path fill="#fff" style="fill: var(--color1, #fff)" d="M21.49 14.745c0 2.946-2.388 5.333-5.333 5.333s-5.333-2.388-5.333-5.333c0-2.946 2.388-5.333 5.333-5.333s5.333 2.388 5.333 5.333z"></path>
<path fill="#fff" style="fill: var(--color1, #fff)" d="M29.060 32.853c0-1.723-0.339-3.429-0.999-5.020s-1.626-3.038-2.844-4.256c-1.218-1.218-2.664-2.184-4.256-2.844s-3.297-0.999-5.020-0.999c-1.723 0-3.429 0.339-5.020 0.999s-3.038 1.626-4.256 2.844c-1.218 1.218-2.184 2.664-2.844 4.256s-0.999 3.297-0.999 5.020h26.237z"></path>
</symbol>
<symbol id="icon-hexagon-01" viewBox="0 0 32 32">
<path stroke-linejoin="round" stroke-linecap="round" stroke-miterlimit="4" stroke-width="2.6667" d="M14.964 3.242c0.378-0.21 0.567-0.315 0.767-0.356 0.177-0.036 0.36-0.036 0.537 0 0.2 0.041 0.389 0.146 0.767 0.356l9.867 5.481c0.399 0.222 0.599 0.333 0.744 0.491 0.129 0.14 0.226 0.305 0.285 0.485 0.067 0.204 0.067 0.432 0.067 0.889v10.823c0 0.457 0 0.685-0.067 0.889-0.060 0.18-0.157 0.346-0.285 0.485-0.145 0.158-0.345 0.269-0.744 0.491l-9.867 5.481c-0.378 0.21-0.567 0.315-0.767 0.356-0.177 0.036-0.36 0.036-0.537 0-0.2-0.041-0.389-0.146-0.767-0.356l-9.867-5.481c-0.399-0.222-0.599-0.333-0.744-0.491-0.129-0.14-0.226-0.305-0.286-0.485-0.067-0.204-0.067-0.432-0.067-0.889v-10.823c0-0.457 0-0.685 0.067-0.889 0.060-0.18 0.157-0.346 0.286-0.485 0.145-0.158 0.345-0.269 0.744-0.491l9.867-5.481z"></path>
</symbol>
<symbol id="icon-colors" viewBox="0 0 32 32">
<path stroke-linejoin="round" stroke-linecap="round" stroke-miterlimit="4" stroke-width="2.6667" d="M16 27.296c1.415 1.267 3.284 2.037 5.333 2.037 4.418 0 8-3.582 8-8 0-3.689-2.497-6.795-5.893-7.72M8.56 13.614c-3.396 0.925-5.894 4.031-5.894 7.72 0 4.418 3.582 8 8 8s8-3.582 8-8c0-1.041-0.199-2.035-0.56-2.947M24 10.667c0 4.418-3.582 8-8 8s-8-3.582-8-8 3.582-8 8-8c4.418 0 8 3.582 8 8z"></path>
</symbol>
<symbol id="icon-lightning-02" viewBox="0 0 32 32">
<path stroke-linejoin="round" stroke-linecap="round" stroke-miterlimit="4" stroke-width="2.6667" d="M18.999 2.667h-7.674c-0.239 0-0.359 0-0.465 0.036-0.093 0.032-0.178 0.085-0.249 0.154-0.080 0.078-0.133 0.185-0.24 0.399l-5.6 11.2c-0.256 0.511-0.383 0.767-0.353 0.974 0.027 0.181 0.127 0.344 0.277 0.449 0.172 0.12 0.458 0.12 1.029 0.12h8.274l-4 13.333 16.258-16.86c0.548-0.569 0.823-0.853 0.839-1.097 0.014-0.211-0.073-0.417-0.235-0.553-0.186-0.157-0.581-0.157-1.372-0.157h-9.49l3-8z"></path>
</symbol>
<symbol id="icon-container" viewBox="0 0 32 32">
<path stroke-linejoin="round" stroke-linecap="round" stroke-miterlimit="4" stroke-width="2.6667" d="M27.333 9.704l-11.333 6.296M16 16l-11.333-6.296M16 16l0 12.667M28 21.411v-10.823c0-0.457 0-0.685-0.067-0.889-0.060-0.18-0.157-0.346-0.285-0.485-0.145-0.158-0.345-0.269-0.744-0.491l-9.867-5.481c-0.378-0.21-0.567-0.315-0.767-0.356-0.177-0.036-0.36-0.036-0.537 0-0.2 0.041-0.389 0.146-0.767 0.356l-9.867 5.481c-0.399 0.222-0.599 0.333-0.744 0.491-0.129 0.14-0.226 0.305-0.286 0.485-0.067 0.204-0.067 0.432-0.067 0.889v10.823c0 0.457 0 0.685 0.067 0.889 0.060 0.18 0.157 0.346 0.286 0.485 0.145 0.158 0.345 0.269 0.744 0.491l9.867 5.481c0.378 0.21 0.567 0.315 0.767 0.356 0.177 0.036 0.36 0.036 0.537 0 0.2-0.041 0.389-0.146 0.767-0.356l9.867-5.481c0.399-0.222 0.599-0.333 0.744-0.491 0.129-0.14 0.226-0.305 0.285-0.485 0.067-0.204 0.067-0.432 0.067-0.889z"></path>
</symbol>
<symbol id="icon-puzzle-piece-02" viewBox="0 0 32 32">
<path stroke-linejoin="round" stroke-linecap="round" stroke-miterlimit="4" stroke-width="2.6667" d="M16 2.667l4.8 4.8c3.2-8.4 12.133 0.533 3.733 3.733l4.8 4.8-4.8 4.8c-3.2-8.4-12.133 0.533-3.733 3.733l-4.8 4.8-4.8-4.8c-3.2 8.4-12.133-0.533-3.733-3.733l-4.8-4.8 4.8-4.8c3.2 8.4 12.133-0.533 3.733-3.733l4.8-4.8z"></path>
</symbol>
<symbol id="icon-loading-03" viewBox="0 0 32 32">
<path stroke-linejoin="round" stroke-linecap="round" stroke-miterlimit="4" stroke-width="2.6667" d="M4.454 22.666c-1.67-2.893-0.821-6.58 1.944-8.453l0.003-0.003c2.221-1.501 5.143-1.45 7.312 0.126l4.576 3.327c2.167 1.576 5.090 1.627 7.312 0.126l0.003-0.003c2.766-1.872 3.616-5.563 1.943-8.453M22.669 27.546c-2.893 1.669-6.58 0.821-8.453-1.944l-0.003-0.003c-1.501-2.221-1.45-5.143 0.126-7.312l3.327-4.576c1.576-2.167 1.627-5.090 0.126-7.312l-0.006-0.003c-1.872-2.763-5.563-3.615-8.453-1.942M25.427 6.572c5.207 5.207 5.207 13.648 0 18.855s-13.648 5.207-18.855 0c-5.207-5.207-5.207-13.648 0-18.855s13.648-5.207 18.855 0z"></path>
</symbol>
<symbol id="icon-star-04" viewBox="0 0 32 32">
<path stroke-linejoin="round" stroke-linecap="round" stroke-miterlimit="4" stroke-width="2.6667" d="M16 2.667l2.683 6.975c0.376 0.978 0.564 1.466 0.856 1.878 0.259 0.364 0.577 0.683 0.942 0.942 0.411 0.292 0.9 0.48 1.878 0.856l6.975 2.683-6.975 2.683c-0.978 0.376-1.466 0.564-1.878 0.856-0.364 0.259-0.683 0.577-0.942 0.942-0.292 0.411-0.48 0.9-0.856 1.878l-2.683 6.975-2.683-6.975c-0.376-0.978-0.564-1.466-0.856-1.878-0.259-0.364-0.578-0.683-0.942-0.942-0.411-0.292-0.9-0.48-1.878-0.856l-6.975-2.683 6.975-2.683c0.978-0.376 1.466-0.564 1.878-0.856 0.364-0.259 0.683-0.578 0.942-0.942 0.292-0.411 0.48-0.9 0.856-1.878l2.683-6.975z"></path>
</symbol>
<symbol id="icon-trash-04-1" viewBox="0 0 32 32">
<path stroke-linejoin="round" stroke-linecap="round" stroke-miterlimit="4" stroke-width="2.6" d="M12 4h8"></path>
<path stroke-linejoin="round" stroke-linecap="round" stroke-miterlimit="4" stroke-width="2.6" d="M4 8h24"></path>
<path stroke-linejoin="round" stroke-linecap="round" stroke-miterlimit="4" stroke-width="2.6" d="M6.667 8l0.801 12.018c0.149 2.231 0.223 3.347 0.588 4.243 0.662 1.627 2.004 2.883 3.672 3.435 0.919 0.304 2.037 0.304 4.273 0.304v0c2.236 0 3.354 0 4.273-0.304 1.668-0.552 3.010-1.808 3.672-3.435 0.365-0.896 0.439-2.012 0.588-4.243l0.801-12.018"></path>
</symbol>
<symbol id="icon-pencil-01" viewBox="0 0 32 32">
<path stroke-linejoin="round" stroke-linecap="round" stroke-miterlimit="4" stroke-width="2.6" d="M3.333 28.667l7.399-2.846c0.473-0.182 0.71-0.273 0.931-0.392 0.197-0.106 0.384-0.227 0.56-0.364 0.199-0.154 0.378-0.333 0.736-0.692l15.040-15.040c1.473-1.473 1.473-3.861 0-5.333s-3.861-1.473-5.333 0l-15.040 15.040c-0.359 0.359-0.538 0.538-0.692 0.736-0.137 0.176-0.259 0.364-0.364 0.561-0.119 0.221-0.21 0.458-0.392 0.931l-2.846 7.399zM3.333 28.667l2.744-7.135c0.196-0.511 0.295-0.766 0.463-0.883 0.147-0.102 0.329-0.141 0.505-0.107 0.201 0.038 0.395 0.232 0.782 0.619l3.012 3.012c0.387 0.387 0.58 0.58 0.619 0.782 0.034 0.176-0.005 0.358-0.107 0.505-0.117 0.168-0.372 0.267-0.883 0.463l-7.135 2.744z"></path>
</symbol>
<symbol id="icon-arrow-circle-broken-right" viewBox="0 0 32 32">
<path stroke-linejoin="round" stroke-linecap="round" stroke-miterlimit="4" stroke-width="2.6" d="M4.45 9.333c2.305-3.985 6.614-6.667 11.55-6.667 7.364 0 13.333 5.97 13.333 13.333s-5.97 13.333-13.333 13.333c-4.935 0-9.244-2.681-11.55-6.667"></path>
<path stroke-linejoin="round" stroke-linecap="round" stroke-miterlimit="4" stroke-width="2.6" d="M16 21.333l5.333-5.333-5.333-5.333"></path>
<path stroke-linejoin="round" stroke-linecap="round" stroke-miterlimit="4" stroke-width="2.6" d="M2.667 16h18.667"></path>
</symbol>
<symbol id="icon-bell-01" viewBox="0 0 32 32">
<path fill="none" stroke="#bedbb0" style="stroke: var(--color4, #bedbb0)" stroke-linejoin="round" stroke-linecap="round" stroke-miterlimit="4" stroke-width="3" d="M12.472 28c0.94 0.83 2.175 1.333 3.528 1.333s2.588-0.503 3.528-1.333M24 10.667c0-2.122-0.843-4.157-2.343-5.657s-3.535-2.343-5.657-2.343-4.157 0.843-5.657 2.343c-1.5 1.5-2.343 3.535-2.343 5.657 0 4.12-1.039 6.941-2.2 8.807-0.979 1.574-1.469 2.361-1.451 2.581 0.020 0.243 0.071 0.336 0.267 0.481 0.177 0.131 0.974 0.131 2.569 0.131h17.63c1.595 0 2.392 0 2.569-0.131 0.196-0.145 0.247-0.238 0.267-0.481 0.018-0.22-0.472-1.007-1.451-2.581-1.161-1.866-2.2-4.687-2.2-8.807z"></path>
</symbol>
<symbol id="icon-filter" viewBox="0 0 32 32">
<path stroke-linejoin="round" stroke-linecap="round" stroke-miterlimit="4" stroke-width="3" d="M29.334 4h-26.667l10.667 12.613v8.72l5.333 2.667v-11.387l10.667-12.613z"></path>
</symbol>
<symbol id="icon-plus-1" viewBox="0 0 32 32">
<path d="M25.143 0h-18.286c-3.787 0-6.857 3.070-6.857 6.857v18.286c0 3.787 3.070 6.857 6.857 6.857h18.286c3.787 0 6.857-3.070 6.857-6.857v-18.286c0-3.787-3.070-6.857-6.857-6.857z"></path>
<path fill="none" stroke="#fff" style="stroke: var(--color1, #fff)" stroke-linejoin="round" stroke-linecap="round" stroke-miterlimit="4" stroke-width="1.1429" d="M16 11.333v9.333"></path>
<path fill="none" stroke="#fff" style="stroke: var(--color1, #fff)" stroke-linejoin="round" stroke-linecap="round" stroke-miterlimit="4" stroke-width="1.1429" d="M11.333 16h9.333"></path>
</symbol>
<symbol id="icon-hover" viewBox="0 0 36 32">
<path fill="#9dc888" style="fill: var(--color12, #9dc888)" d="M5.333 0h24.889c2.946 0 5.333 2.388 5.333 5.333v21.333c0 2.946-2.388 5.333-5.333 5.333h-24.889c-2.946 0-5.333-2.388-5.333-5.333v-21.333c0-2.946 2.388-5.333 5.333-5.333z"></path>
<path fill="none" stroke="#121212" style="stroke: var(--color2, #121212)" stroke-linejoin="round" stroke-linecap="round" stroke-miterlimit="4" stroke-width="1.6" d="M17.778 10.815v10.37"></path>
<path fill="none" stroke="#121212" style="stroke: var(--color2, #121212)" stroke-linejoin="round" stroke-linecap="round" stroke-miterlimit="4" stroke-width="1.6" d="M12.592 16h10.37"></path>
</symbol>
<symbol id="icon-normal" viewBox="0 0 36 32">
<path fill="#bedbb0" style="fill: var(--color4, #bedbb0)" d="M5.333 0h24.889c2.946 0 5.333 2.388 5.333 5.333v21.333c0 2.946-2.388 5.333-5.333 5.333h-24.889c-2.946 0-5.333-2.388-5.333-5.333v-21.333c0-2.946 2.388-5.333 5.333-5.333z"></path>
<path fill="none" stroke="#121212" style="stroke: var(--color2, #121212)" stroke-linejoin="round" stroke-linecap="round" stroke-miterlimit="4" stroke-width="1.6" d="M17.778 10.815v10.37"></path>
<path fill="none" stroke="#121212" style="stroke: var(--color2, #121212)" stroke-linejoin="round" stroke-linecap="round" stroke-miterlimit="4" stroke-width="1.6" d="M12.592 16h10.37"></path>
</symbol>

<symbol id="icon-login" viewBox="0 0 32 32">
<path fill="none" stroke="#bedbb0" style="stroke: var(--color1, #bedbb0)" stroke-linejoin="round" stroke-linecap="round" stroke-miterlimit="4" stroke-width="1.5" d="M11.867 10.080c0.413-4.8 2.88-6.76 8.28-6.76h0.173c5.96 0 8.347 2.387 8.347 8.347v8.693c0 5.96-2.387 8.347-8.347 8.347h-0.173c-5.36 0-7.827-1.933-8.267-6.653"></path>
<path fill="none" stroke="#bedbb0" style="stroke: var(--color1, #bedbb0)" stroke-linejoin="round" stroke-linecap="round" stroke-miterlimit="4" stroke-width="1.5" d="M2.667 16h17.173"></path>
<path fill="none" stroke="#bedbb0" style="stroke: var(--color1, #bedbb0)" stroke-linejoin="round" stroke-linecap="round" stroke-miterlimit="4" stroke-width="1.5" d="M16.867 11.533l4.467 4.467-4.467 4.467"></path>
</symbol>
</defs>
</svg>
